<?xml version="1.0" encoding="UTF-8"?>
<svg id="Layer_1" data-name="Layer 1" xmlns="http://www.w3.org/2000/svg" viewBox="0 0 144 144">
  <path d="M7.03,143.32c-4.73-.96-8.75-10.06-6.28-14,.93-1.48,8.48-3.95,11.3-5.79,8.52-5.56,23.48-31.26,28.58-41.19,6.23-12.12,5.24-12.6-1.01-24.33-3.66-6.87-19.18-35.7-24.1-37.92-2.6-1.18-7.23-.28-8.61-2.25l-.66-15.61c10.5-.69,37.56-4.7,45.82,1.45,9.93,7.39-1.06,13.05-2.16,16.68-2.3,7.57,11.01,23.2,16.79,28.37,2.93-11.18,24.72-27.36,6.14-33.56-.41-6.76.84-13.73,8.53-14.58,6.92-.76,24.32-.82,31.17,0,2.29.27,4.09.16,5.21,2.54,6.11,14.56-2.25,11.63-9.75,16.35-2.42,1.52-22.47,36.22-25.07,41.6-3.39,7.02-4.9,9.6-1.32,16.97,4.71,9.7,22.66,39.53,30.03,45.93,2.71,2.36,6.63,3.32,8.52,5.43,4.55,5.09,1.94,12.75-4.62,13.89-4.62.8-39.54.58-42.59-.78-7.95-3.52-5.63-16.58,2.88-18.02,2.35-3.35-12.71-25.72-14.59-30.74l-3.8-1.6c-2.01,6.26-19.1,27.35-14.86,32.68,1.85,2.32,6.04-.9,6.96,6.96.58,4.95.62,8.49-3.75,11.52-11.3-1.58-28.27,2.14-38.76,0Z"/>
</svg>