<?xml version="1.0" encoding="UTF-8"?>
<svg id="Layer_1" data-name="Layer 1" xmlns="http://www.w3.org/2000/svg" viewBox="0 0 144 144">
  <path d="M93.91,6.45c3.78,3.56,4.12,21.21,4,26.97-.27,13.11-.31,21.02-16.31,15.63-5.57-8.54-4.72-18.2-14.37-24.06-11.95-7.27-26.49-3.01-32.17,9.84-8.02,18.16-9.72,66.77,5,81.63,8.32,8.4,28.04,6.15,35.64-2.57,5.67-6.51.36-14.28,13.58-14.6,12.69-.31,10.66,17.5,6.25,25.56-12.57,23.01-51.44,24.31-70.77,9.13C-16.22,101.81-7.14-4.93,58.05.18c7.37.58,15.59,5.13,21.04,5.61,4.49.39,9.99-3.33,14.81.67Z"/>
</svg>