<?xml version="1.0" encoding="UTF-8"?>
<svg id="Layer_1" data-name="Layer 1" xmlns="http://www.w3.org/2000/svg" viewBox="0 0 144 144">
  <path d="M37.65,26.54c.64.18,3.95,3.74,4.25,4.75,3.06,10.12-6.12,7.29-8.14,10.64-3.12,5.18,4.08,29.93,5.48,37.02.63,3.17,2.25,23.36,4.84,23.43l17.68-67.15c2.11-9.77,14.75-12.8,19.25-3.18,4.79,10.26,9.84,31.51,13.24,43.33,2.57,8.9,4.31,18.17,7.06,27.02,1.9-.19,2.03-1.87,2.5-3.27,3.12-9.16,3.74-19.46,5.82-28.89,1.57-7.12,7.83-21.01,5.61-27.44-.64-1.85-3.13-2.12-4.23-3.47-3.63-4.46-4.63-12.26,2.42-12.85,5.19-.43,19.34-1.28,24.03-.53,5.39.87,8.56,5.55,5.06,10.34-1.89,2.6-6.53,2.54-8.54,4.31-4.3,3.78-8.14,36.3-9.92,44.08-2.26,9.89-5.73,20.3-8.27,30.3-2.01,7.92-2.63,26.32-11.55,28.3-18.42,4.08-18.52-9.79-22.14-23.61-3.46-13.22-5.05-29.5-9.44-41.99-.66-1.88-1.16-3.58-2.87-4.82l-18.36,66.48c-2.93,6.18-17.28,5.61-20.91,1.05L9.68,46.8c-.22-5.42-6.55-5.84-8.37-7.7-1.21-1.24-3.36-8.04-2.28-9.96.66-.59,2.24-2.6,2.62-2.6h36Z"/>
</svg>