<?xml version="1.0" encoding="UTF-8"?>
<svg id="Layer_1" data-name="Layer 1" xmlns="http://www.w3.org/2000/svg" viewBox="0 0 144 144">
  <path d="M39.54,58.12c.5,1.78,2.6,2.71,4.75,1.6,3.3-1.71,28.35-30.3,30.29-34.32,4.47-9.29-11.6-7.22-5.86-20.03,3.56-7.95,17.12-4.76,23.53-4.67,9.45.13,26.17-3.89,26.2,8.59.03,10.97-9.84,6.6-17.5,12.57-11.81,9.2-19.74,25.07-31.57,34.62-4.09,6.18,6.87,14.66,10.82,20.84,6.22,9.73,21.01,42.35,29.05,47.35,1.41.87,4.05.27,5.85,1.19,4.54,2.33,5.54,15.4-.72,16.54-7.08,1.29-28.24.6-36.3.06-7.13-.48-11.62-.66-11.84-8.77-.27-10.17,7.49-10.03,7.65-12.54-2.65-4.98-20.33-40.04-22.62-40.29-4.2-.47-10.43,7.17-11.35,10.7-.92,3.51-1.03,24.34-.05,27.68,1.53,5.26,10.07,6.54,11.54,8.93,2.3,3.75,1.34,12.35-3.53,13.88-1.8.57-10.37,1.95-12.26,1.94-2.68,0-5.29-1.6-7.87-1.61-5.67-.03-22.48,2.48-25.22-3.13-1-2.05-1.49-11.08-.54-12.39,1-1.39,9.6-2.09,10.77-8.91l-1.4-96.21C3.36,18.47-1.56,14.34.45,4.88l1.94-2.81C16.54-1.43,31.74.84,46.39.87c3.52,1.13,5.84,9.75,4.38,13.22-2.37,5.62-7.49,3.4-11.22,7.81v36.23Z"/>
</svg>