<?xml version="1.0" encoding="UTF-8"?>
<svg id="Layer_1" data-name="Layer 1" xmlns="http://www.w3.org/2000/svg" viewBox="0 0 144 144">
  <path d="M61.87,125.84c-6.65.24-11.47,4.26-18.5,4.09C-15.05,128.5-18.24-14.16,57.1,1.15c44.88,9.12,45.92,80.73,23.5,111.34,2.17,11.67,7.33,5.91,14.03,6.13,11.75.39,5.41,19.99-5.25,23.99-14.42,5.41-22.3-5.11-27.51-16.76ZM27.45,91.05c.95,1.07,7.57-4.27,9.39-5.14,6.11-2.92,13.02-4.68,19.77-2.55,3.47,1.09,8.96,10.2,10.79,4.02.65-2.19,1.47-10.67,1.66-13.58.96-14.52,1.99-47.31-13.91-54.08-18.31-7.8-23.96,6.25-27.08,21.4-3.31,16.08-2.37,33.71-.62,49.92ZM36.15,107.29c4.48,4.75,16.33,7.49,19.07-.3-3.87-8.98-16.07-13.65-20.33-2.77.1,1.1.49,2.26,1.26,3.07Z"/>
</svg>