<?xml version="1.0" encoding="UTF-8"?>
<svg id="Layer_1" data-name="Layer 1" xmlns="http://www.w3.org/2000/svg" viewBox="0 0 144 144">
  <path d="M87.96,87.42c.27-3.51,1.44-6.67,1.68-10.26.82-12.63,1.38-37.14-.21-49.2-1.63-12.4-9.01-8.38-11.12-11.47-2.56-3.74-1.56-10.72.35-14.69,7.68.87,34.15-2.5,38.87,1.24,1.35,1.07,1.92,2.48,2.21,4.15,2.17,12.41-5.17,9.13-12.75,14.52l-.63,121.43c-1.55,2.32-18.84,2.86-21.61-.84L38.69,52.46c-2.89.61-2.98,3.1-3.23,5.49-1.63,15.68.06,35.02.14,51,.03,5.42-3.42,10.45,1.42,15.92s13.33,2.54,9.42,17.96c-1.59,2.34-32.27,2.44-37.23,1.88-13.34-1.5-11.05-18.9,2.61-20.15l2.74-25.23c-3.49-21.2.96-45.45-1.45-66.59-.29-2.51-1.87-9.35-3.14-11.17-3.83-5.49-15.8-3.59-6.32-19.27,15.33-1.35,31.87-7.35,41.72,7.71,12.86,19.68,23.26,47.61,35.96,68.93,1.7,2.86,3.6,6.91,6.62,8.46Z"/>
</svg>