<?xml version="1.0" encoding="UTF-8"?>
<svg id="Layer_1" data-name="Layer 1" xmlns="http://www.w3.org/2000/svg" viewBox="0 0 144 144">
  <path d="M49.92,2.13c6.37,10.27-8.02,15.67-7.56,23.86l22.21,73.11c2.44,4.84,6.08,6.91,6.93-.06l19.16-74.68c1.35-5.68-7.14-6.81-8.53-9.84l1.53-11.05c5.58-5.71,13.11-1.99,19.03-2.08,6.98-.11,22.26-4.81,22.27,7.57,0,7.12-7.72,8.32-11.64,11.68-5.51,4.71-9.13,29.33-11.77,38.18-1.48,4.98-4.34,9.74-5.72,14.57-6.09,21.19-10.22,42.96-17.29,63.88-2.22,6.44-18.1,8.45-23.05,5.24-2.84-1.84-5.77-8.28-7.2-11.52C34.38,99.57,28.84,60.23,14.98,28.49c-3.71-8.49-4.39-5.65-10.19-10.1C.4,15.02-1.7,10.86,1.65,5.73c7-10.72,36.77-2.98,48.27-3.6Z"/>
</svg>