<?xml version="1.0" encoding="UTF-8"?>
<svg id="Layer_1" data-name="Layer 1" xmlns="http://www.w3.org/2000/svg" viewBox="0 0 144 144">
  <path d="M1.97,2.74c1.62-1.62,5.61-1.77,7.92-1.93C24.77-.23,61.44-.87,74.7,2.81c21.9,6.09,33.55,28.87,23.52,49.95-3.97,8.34-10.91,9.38-14.66,16.87,4.45,5.47,10.74,8,14.81,14.09,8,11.95,9.31,25.95,3.09,38.97-5.92,12.39-20.58,19.38-33.92,20.65-19.18,1.83-42.05-.74-61.4-.74-3.73-2.86-5.82-8.93-4.32-13.42,1.18-3.53,9.01-2.97,10.09-9.67-.54-21.56.81-43.24.37-64.9-.14-6.86.04-12.87.07-19.64,0-1.91-1.79-13.45-2.37-14.43-1.39-2.34-8.32-2.72-9.63-7.07C-.43,10.83.06,4.65,1.97,2.74ZM44.79,19.81c-1.87.09-3.63.65-5.3,1.48l-1.52,3.04c1.62,9.37-4.49,26.09.74,34.17,2.9,4.48,21.32-.01,26.12-2.76,13.76-7.88,12.36-30.73-4-34.52-3.5-.81-12.51-1.59-16.05-1.41ZM42.07,79.98c-1.45.42-2.54,1.48-3.33,2.73-1.72,3.49-1.39,35.32.89,38.54,4.62,6.51,25.37.23,30.95-5.18,6.25-6.07,7.66-17.52,4.14-25.37-4.24-9.47-23.64-13.35-32.65-10.71Z"/>
</svg>