<?xml version="1.0" encoding="UTF-8"?>
<svg id="Layer_1" data-name="Layer 1" xmlns="http://www.w3.org/2000/svg" viewBox="0 0 144 144">
  <path d="M142.05,17.07c-4.77,4.71-9.11-1.78-10.34,13.63-1.78,22.18-1.92,64.4.05,86.44,1.08,12.05,12.23,5.63,10.31,18.41-1.84,12.23-8.51,7.66-15.6,7.46-6.48-.19-24.23,1.41-28.56-1.44-3.21-2.11-3.19-11.73-1.13-14.83.97-1.46,5.3-1.64,7.68-3.36,5.24-3.8,1.62-7.21,1.47-12.47-.52-18.74,1.47-36.18.14-55.08-.2-2.84.46-5.06-2.34-6.97l-26.42,78.99c-9.6,6.38-11.19,1.77-15.05-6.24-9.65-20.03-15.1-45.93-24.37-65.82-2.89-6.2-5.57-4.61-6.24,1.6-1.17,10.83,1.72,21.53,1.72,31.47,0,9.3-5.33,27,1.35,34.58,1.94,2.2,5.02,2.8,6.78,5.53,2.29,3.55,3.29,10.85-.66,13.31-2,1.25-28.39,1.3-32.69.83-5.61-.62-6.86-3.07-6.89-8.7-.05-10.05,4.26-9.31,12.08-11.99l.16-97.89c-1-6.19-5.49-4.43-9.01-6.37C-.37,15.46-1.84,5.39,2.88,2.47c2.02-1.25,29.94-1.32,34.21-.83,1.68.19,3.29.17,4.59,1.53l31.73,80.18L100.62,3.21c6.04-5.82,13.31-1.98,19.78-1.77,1.82.06,3.79-1.34,5.91-1.17,3.58.28,14.6,1.57,16.2,3.66,2.31,2.65,1.77,10.94-.46,13.14Z"/>
</svg>