<?xml version="1.0" encoding="UTF-8"?>
<svg id="Layer_1" data-name="Layer 1" xmlns="http://www.w3.org/2000/svg" viewBox="0 0 144 144">
  <path d="M95,3.32c3.18,2.14,4.63,39.53,1.77,43.53-14.7,10.6-14.73-4.2-19.86-12.88-8.12-13.74-29.38-16.82-39.38-3.49-11.71,15.61-11.19,65.75-1.28,82.57,10.56,17.91,35.32,10.71,36.75-11.63,1.08-16.88-11.53-7.78-15.54-12.53-4.33-7.98-.45-16.96,9.13-17.25,7.95-.24,24.59.03,32.35.89,5.52.61,8.88,5.73,8.14,11.13-.61,4.47-6.4,4.69-8.54,7.08-5.15,5.79.04,31.64-.35,40.3-.56,12.5-2.81,13.68-15.32,12.56l-6.14-5.95c-16.52,9.79-41.39,8.36-55.53-5.12C-15.66,97.39-5.29-6.51,58.83.32c6.08.65,20.21,7.29,22.36,7.24,2.82-.07,7.78-7.56,13.81-4.24Z"/>
</svg>