<?xml version="1.0" encoding="UTF-8"?>
<svg id="Layer_1" data-name="Layer 1" xmlns="http://www.w3.org/2000/svg" viewBox="0 0 144 144">
  <path d="M93.56,103.03c.58,7.82,1.58,38.05-7.22,40.68l-80.43.28c-6.03-.41-6.68-8.66-5.31-13.18,1.31-4.32,8.01-2.97,9.22-14.52,2.3-21.86,1.84-66.49.08-88.79-.82-10.44-7.73-7.73-9.3-12.87C-.19,12.04-.39,3.56,1.79,2.15,5.99,2.2,11.96.03,15.53,0c3.18-.03,6.09,1.61,9.33,1.62,7.11.01,14.25-2.04,21.97.05,3.74,1.2,4.08,12.28,1.84,15.67-3.36,3.79-11.5-2.21-13.38,11.98l.56,92.62c7.27,3.21,28.79,1.86,33.27-4.94,7.34-11.16,2.1-21.27,24.44-13.96Z"/>
</svg>