<?xml version="1.0" encoding="UTF-8"?>
<svg id="Layer_1" data-name="Layer 1" xmlns="http://www.w3.org/2000/svg" viewBox="0 0 144 144">
  <path d="M33.74,19.35c-16.79-2.19-11.77,3.34-14.42,13.05-1.82,6.65-17.87,7.13-18.86.31C-.31,27.38-.3,1.89,4.66.21L92.14,0c4.03.42,4.94,4.9,6.04,8.3,2.96,9.12,3.33,17.61.32,26.76-16.45,12.65-16.94-12.45-21.47-15.17-2.7-1.62-12.97-1.87-14.17,1.85l1.22,101.95c2.85,3.4,8.47.44,10.6,6.93,1.41,4.3,1.62,11.01-3.57,12.53-3.71,1.09-36.48,1.08-41.11.28-6.76-1.17-9.36-9.53-5.47-15,2.57-3.62,9.84-2.94,11-9.71-1.61-29.63,2.23-61.56.11-90.89-.22-2.97-.55-5.8-1.88-8.48Z"/>
</svg>