<?xml version="1.0" encoding="UTF-8"?>
<svg id="Layer_1" data-name="Layer 1" xmlns="http://www.w3.org/2000/svg" viewBox="0 0 144 144">
  <path d="M39.34,120.18c1.15,5.52,9.32,6.16,10.35,9.29,1.17,3.58.95,11.18-2.78,13.39-2.34,1.15-37.56,1.49-41.58.76-5.67-1.04-6.7-9.97-3.65-14.25,2.84-3.99,9.6-2.1,10.54-10.61-2.32-28.55,2.85-61.23-.07-89.25-1.25-12.04-8.93-10.83-10.32-15.38C-3.38-2.88,22.75,1.72,32.61,1.62c5.48-.05,10.11-3.24,15.83.65l1.25,1.76c.42,6.32,2.96,10.42-2.84,14.85-2.89,2.2-6.69,1.63-7.52,6.07-.64,3.45.24,8.24.02,12.1-.15,2.58-1.55,5.04-1.55,7.56,0,4.33,2.37,11,2.2,15.97,2.32,3.5,19.98.54,24.54.44,3.78-.08,14.11,3.09,16.46-.44,2.47-5.19-.56-11.24-.57-15.96-.01-7.12,3.67-16.76-1.76-22.71-1.93-2.12-5.01-2.69-6.76-5.32-5.51-8.25-.31-14.27,8.51-15.56,7.31-1.07,14.75.3,21.48.41,2.13.04,4.51-1.67,7.58-1.41,9.55.81,10.63,13.95,5.05,19.27-1.96,1.87-7.14,1.29-7.19,5.66-.19,28.65-.16,57.38,1,85.88.07,1.68-1.13,3.94-1.07,6.27.24,8.94,4.92,6.03,8.36,9.89,3.43,3.85,3.24,14.77-1.71,16.36-3.02.97-35.58.65-38.28-.55-4.72-2.09-6.24-9.5-3.15-13.69,1.38-1.87,5.02-2.48,6.84-5.24,4.68-7.11.92-12.54.78-18.91-.15-6.92.8-14.57-.15-21.63-1.94-2.83-34.46-2.04-40.61-1.71v38.54Z"/>
</svg>