<?xml version="1.0" encoding="UTF-8"?>
<svg id="Layer_1" data-name="Layer 1" xmlns="http://www.w3.org/2000/svg" viewBox="0 0 144 144">
  <path d="M85.46,17.28c-2.73,1.98-3.27,10.29-3.45,13.68-1.31,24.22,4.79,74.03-4.68,93.82-10.87,22.73-65.83,27.45-75.07,2.45-5.34-14.44-2.02-39.7,18.72-33.64,6.3,14.17-3.98,28.89,17.25,30.59,11.79.94,17.91-8.34,19.6-18.9,2.3-14.34,1.9-59.12.19-74.1-1.63-14.31-8.92-9.05-13.89-17.44-2.37-3.99-2.92-8.93,1.26-11.93,5.48-3.94,37.32-.06,46.17-1.18,2.61.87,4.46,8.06,3.73,10.7-1.3,4.65-7.46,4.24-9.82,5.95Z"/>
</svg>