<?xml version="1.0" encoding="UTF-8"?>
<svg id="Layer_1" data-name="Layer 1" xmlns="http://www.w3.org/2000/svg" viewBox="0 0 144 144">
  <path d="M49.62,1.99c2.47,4.46,2.82,9.58-.54,13.65-1.95,2.36-6.88,2.99-6.66,6.77l18.44,40.03c3.6.7,2.47-.31,3.45-2,3.45-5.95,15.96-29.84,16.48-35.05.81-8.24-6.5-7.8-7.5-13.62-2.8-16.31,18.1-11.03,27.59-10.63,6.67.28,15.3-4.28,17.36,6.37,1.94,10.01-9.91,11.06-15.09,18.59-4.42,6.43-29.97,52.44-31.07,57.72-.93,4.44-1.16,33.06-.05,36.76,2.4,5.48,11.16,4.87,12.2,11.25.54,3.31-.6,10.24-4.16,11.38-3.46,1.11-33.6.88-38.78.32-5.7-.62-7.07-2.99-7.09-8.64-.03-9.65,5.28-6.56,9.58-10.83,6.66-6.63-.28-31.7.79-41.45-9.75-18.51-18.78-41.54-29.82-58.98-4.12-6.51-7.67-3.35-11.57-5.57C-.2,16.13-1.09,7,1.5,3.87,6.19-1.79,41.73-.15,49.62,1.99Z"/>
</svg>