<?xml version="1.0" encoding="UTF-8"?>
<svg id="Layer_1" data-name="Layer 1" xmlns="http://www.w3.org/2000/svg" viewBox="0 0 144 144">
  <path d="M74.12,4.92l31.57,116.19c7.28,6.3,12.34,8.09,9.48,19.46-5.31,4.98-7.94,1.74-12.63,1.75-5.01,0-10.11-.13-15.08-.06s-16.33,3.98-18.69-3.94c-3.34-11.18,7.98-13.49,8.32-16.32l-4.37-15.64c-2.76-2.86-32.88-2.9-35.69,0-1.91,3.92-5.2,13.9-3.06,17.55.3.51,3.71,1.63,5.11,3.18,4.03,4.45,1.82,9.79.3,14.94-5.21,4.21-11.33.37-15.72.47-5.8.13-21.65,5.15-23.35-3.9-2.03-10.82,6.95-11.64,10.7-19.62L35.07,26.27c.95-9.37-5.16-8.26-5.99-13.51-.94-5.93.77-10.46,6.93-11.18C41.33.95,56.66-.45,61.49.14c4.54.56,8.97,2.06,12.63,4.77ZM56.36,40.85c-3.36-.56-2.41.04-3.36,1.93-2.46,4.93-13.03,37.8-10.27,40.51,4.58-.87,21.28,2.23,22.62-2.48l-9-39.95Z"/>
</svg>