<?xml version="1.0" encoding="UTF-8"?>
<svg id="Layer_1" data-name="Layer 1" xmlns="http://www.w3.org/2000/svg" viewBox="0 0 144 144">
  <path d="M21.12,130.69h20.5c4.39,0,5.86-11.6,8.16-13.07,4.86-3.09,10.53-.76,10.43,5.57-.06,3.31-.9,11.94-1.59,15.04-.33,1.47-1.01,2.9-1.75,4.21-4.25,2.59-8.99,1.16-13.2,1.2-9.15.11-18.06-.88-27.03-1.03-6.73-.11-16.59,5.23-16.55-5.44.02-6.18,8.51-17.47,11.55-23.47,4.52-8.92,8.38-18.14,12.95-27.05l11.53-22.47c-.13-1.7-16.94.76-18.79,1.16-4.51,1.84-2.59,16.49-13.54,13.14-5.12-2.86-2.68-7.19-2.63-11.27.04-3.03-.79-12.69,1.19-14.31,5.61-2.88,11.96-.22,17.16-.3,10.49-.17,21.49-1.83,32.16-.98,5.57.44,7.64,3.65,5.97,9.09-7.9,15.12-15.07,30.73-23.36,45.64-4.36,7.85-11.32,15.5-13.17,24.33Z"/>
</svg>