<?xml version="1.0" encoding="UTF-8"?>
<svg id="Layer_1" data-name="Layer 1" xmlns="http://www.w3.org/2000/svg" viewBox="0 0 144 144">
  <path d="M38.06,121.07c1.33,2.15,3,2.11,5.23,2.36,3.54.4,17.46.26,21.27-.07,14.67-1.25,9.18-9.69,14.31-17.51,5.79-8.83,17.49-4.47,18.33,6.04.49,6.26-.19,21.16-1.9,27.04-1.33,4.58-10.98,5.04-15.34,5.06-5.48.02-13.45-2.52-18.43-2.52-2.85,0-5.74,1.61-9.02,1.62-13.87.03-32.38,1.41-45.56,0-4.64-.5-6.47-2.03-6.87-6.86-1.16-14.08,9.73-8.39,10.8-18.12-2.21-29.78,2.7-63.12-.06-92.46C9.83,15.09-4.2,16.11,2.03,2.57,4.43.97,7.21.85,9.99.65c25.42-1.87,53.89.92,79.56.81,5.36,2.72,7.5,27.81,5.81,33.08s-10.64,4.4-14.84,1.68c-7.27-4.72-4.98-15.19-13.25-17.02-4.84-1.07-26.14-1.2-29.24,1.92-4.42,4.44,1.26,31,.23,38.45,4.6,1.91,10.51,2.5,15.4,1.39,6.9-1.57,6.28-9.22,16.62-6.93s4.01,15.54,7.04,23c-1.3,7.28-2.33,13-11.19,11.51-5.34-.9-6.27-7.26-7.91-7.62-1.85-.41-11.13-1.39-13.2-1.37s-4.55,1.83-6.95,1.41v40.12Z"/>
</svg>