<?xml version="1.0" encoding="UTF-8"?>
<svg id="Layer_1" data-name="Layer 1" xmlns="http://www.w3.org/2000/svg" viewBox="0 0 144 144">
  <path d="M1.72,141.9c-1.1-1.34-1.99-7.14-1.64-9.15,1.15-6.48,7.61-5.84,9-8.17s2.74-11.68,2.97-14.88c2.04-28.51-1.08-60.27-.75-88.88C5.59,18.21.92,16.91,1.25,9.56,1.77-2.18,11.62,1.51,20.32,1.19c23.32-.87,40.19-5.04,61.35,9.94,28.13,19.91,30.44,85.2,10.68,110.63-18.37,23.63-36.74,20.9-63.19,21.04-5.5.03-24.1,3.21-27.45-.9ZM41.85,21.2c-1.45.43-2.54,1.47-3.33,2.73l-.76,94.83c1.3,7.11,14.95,3.34,19.7,1.48,24.89-9.73,22.62-59.85,15.62-80.8-4.21-12.6-17.62-22.27-31.24-18.24Z"/>
</svg>