<?xml version="1.0" encoding="UTF-8"?>
<svg id="Layer_1" data-name="Layer 1" xmlns="http://www.w3.org/2000/svg" viewBox="0 0 144 144">
  <path d="M22.3,130.15c-12.29-12.68-11.21-28.59-11.38-44.99-.17-15.88,1.42-31.68.08-47.69-.34-4,.63-8.57-.01-12.31-.83-4.78-8.84-6.62-10.46-12.72C-3.57-3.01,17.38,1.37,27.24,1.34,30,1.33,32.55-.02,34.87,0c9.31.07,15.89,3.65,12.79,14.06-1.65,5.53-9.17,3.4-10.47,17.25-1.56,16.63-1.74,52.76.15,69.16,2.9,25.21,35.48,29.3,43.44,5.24,1-3.01,2.56-9.83,2.68-12.85.15-3.77-1.59-7-1.49-9.34.69-16.93,3.88-36.74,1.34-53.67-1.49-9.94-9.7-10.29-12.63-16.7-2.23-4.88.77-11,5.8-11.86,9.64-1.66,26.23-.37,36.21.73,4.18,4.97,4.88,12.17-.78,16.22-3.09,2.22-8.07,2.02-8.47,6.94-1.22,23.21,1.54,47.81-.02,70.84-1.02,14.97-3.98,29.45-16.21,39.25-17.31,13.86-49.72,10.58-64.92-5.1Z"/>
</svg>