<?xml version="1.0" encoding="UTF-8"?>
<svg id="Layer_1" data-name="Layer 1" xmlns="http://www.w3.org/2000/svg" viewBox="0 0 144 144">
  <path d="M59,88.21c-3.35-2.21-19.13-3.19-20.02.63.57,10.25-1.55,20.87.09,31.03,1.1,6.77,12.54,6.83,10.68,16.85-1.76,9.46-11.35,5.55-17.77,5.72-6.79.19-15.1,1.44-21.9,1.46-7.48.02-12.38-6.47-8.98-13.46,2.62-5.38,11.79-4.54,11.44-12.04-2.15-29.3,2.61-61.96-.06-90.83-.91-9.85-6.44-6.46-11.69-13.19L3.27,1.98c15.18,0,30.85-2.66,46.03-1.82,16.76.93,38.97,4.86,47.68,21.14,7.51,14.03,4.8,30.63-3.42,43.6-3.34,5.26-11.48,10.61-10.71,17.32,5.83,9.67,8.76,34.75,16.38,41.63,4.02,3.63,9.97,2.72,10.36,10.12.23,4.25-1.04,7.8-5.65,8.58-5.68.95-24.48,1.06-28.08-3.14l-16.85-51.19ZM41.6,20.77c-5.56,1.9-2.54,18.74-2.61,24.05-.07,5.41-3.85,16.07.71,19.69,20.76,6.15,33.47-2.01,33.19-24.12-.26-20.98-14.13-20.3-31.29-19.62Z"/>
</svg>