<?xml version="1.0" encoding="UTF-8"?>
<svg id="Layer_1" data-name="Layer 1" xmlns="http://www.w3.org/2000/svg" viewBox="0 0 144 144">
  <path d="M38.35,120.09l-.62-91.77c.48-3.88,2.54-8.1,5.41-10.68,2-1.8,4.08-1.37,5.37-3.18,1.05-1.47,1.09-5.37,1.08-7.79,0-1.07-.73-3.89-6.06-4.81C32.66-.01,12.68,2.35,5.24,1.87-.34,2.23.8,12.96,2.58,16.6c2.66,5.42,8.59.82,9.52,13.08,2.2,29.12-1.76,61.02-.09,90.45-1.14,6.73-9.14,5.56-10.65,7.75-2.57,3.71-.96,9.79.47,13.77,4.91,3.77,36.67,2.49,41.77,1.04,1.16-.41,3.12-.85,4.17-3.1.77-1.64,1.54-8.51-.13-11.74-1.35-2.61-5.05-1.77-5.81-2.19-1.73-.98-3.35-1.81-3.49-5.55Z"/>
</svg>