<?xml version="1.0" encoding="UTF-8"?>
<svg id="Layer_1" data-name="Layer 1" xmlns="http://www.w3.org/2000/svg" viewBox="0 0 144 144">
  <path d="M55.99,91.24c-12.59-13.28-42.81-21.93-48.95-40.71C-3.68,17.74,18.29-3.33,50.89.43c4.41.51,16.43,5.75,17.34,5.69,1.19-.08,6.93-7.47,12.25-4.09,5.59,1.93,4.07,21.44,4.1,27.1.03,4.78,2.45,7.8-.36,13.69-2.87,6.01-14.6,5.92-17.53-.5-1.13-2.46-.62-5.33-1.59-7.76-12.1-30.25-50-6.55-23.38,15.58,16.31,13.56,36.31,14.92,44.71,37.93,11.85,32.44-11.22,58.85-44.74,55.65-6.64-.63-16.49-6.29-20.33-6.15-2.85.1-16.02,11.03-19.14.4-1.15-3.91-.83-33.99.4-37.99,1.97-6.4,9.1-7.95,14.88-5.35,6.4,2.87,5.72,19.7,17.63,26.02,20.71,10.98,35.75-13.71,20.85-29.42Z"/>
</svg>