<?xml version="1.0" encoding="UTF-8"?>
<svg id="Layer_1" data-name="Layer 1" xmlns="http://www.w3.org/2000/svg" viewBox="0 0 144 144">
  <path d="M40.42,21.27c.52,13.27-2.13,26.57.02,39.47,4.27.69,9.89,1.44,14-.19,3.36-1.33,4.08-5.02,8.04-5.73,2.57-.46,9.39-.53,11.49.71,4,2.37,4.05,28.9,2.74,33.4-1.29,4.41-7.39,4.87-11.19,4.14-4.61-.89-3.88-4.79-6.16-7.63-4.12-5.14-13.03-3.22-19.18-2.43-1.58,1.05-1.31,2.98-1.51,4.61-.73,6.13-.69,31.93,2.43,35.98,1.69,2.2,4.8,2.25,6.77,3.94,4.19,3.58,4.95,13.98-1.01,15.72-4.09,1.2-37.39.85-41.92-.39-5.53-1.52-5.82-11.98-2.49-15.73,4.84-5.45,7.58,0,8.74-13.44,1.85-21.47,1.42-56.33.08-78.1-.33-5.31-1.94-10.72-2.28-16.08C-1.32,17.17-2.96,6.72,5.11.49l87.67-.49c4.51,1.32,4.88,10.02,5.45,14.43.98,7.59.61,14.96,0,22.57l-1.23,1.82c-19.79,5.8-15.51-8.85-21.41-15.51-5-5.64-27.76-4.12-35.16-2.05Z"/>
</svg>