<?xml version="1.0" encoding="UTF-8"?>
<svg id="Layer_1" data-name="Layer 1" xmlns="http://www.w3.org/2000/svg" viewBox="0 0 1240.03 182.42" style="fill: #cab89e">
  <path d="M1205.2,0c-1.35,12.95,15.29,25.24,34.82,25.54v130.7c-19.68,1.35-36.53,12.6-34.82,26.18H34.81C36.68,168.9,19.72,157.53,0,156.47V25.54C19.42,24.54,36.72,13.42,34.81,0h1170.39ZM1191.67,8.98l-1143.02-.07c-5.29,12.2-17.74,21.26-35.86,25.42v113.8c17.79,3.83,30.9,13.03,35.86,24.99l1142.72-.07.7-.34c3.93-11.71,18-21.15,35.15-24.58l-.03-113.46c-.36-1.22-3.34-1.33-5.11-1.88-15.36-4.73-26.16-12.8-30.41-23.8Z"/>
  <path d="M1216.11,38.57l.12,104.69c-15.67,3.96-27.13,13.1-33.29,23.24l-1126.13.12c-3.57-7.73-11.92-14.76-21.81-19.39-2.02-.94-9.94-3.44-10.59-3.92-.33-.25-.61-.46-.61-.81l-.02-103.7c13.64-3.62,23.68-10.23,30.49-18.77.96-1.21,1.51-3.97,3.43-4.21l1123.39-.02c2.9.23,3.66,3.52,5.05,5.16,6.7,7.9,16.93,14.55,29.95,17.62ZM1209.34,41.43c-13.58-4.4-24.11-11.77-30.71-20.76l-1.81-.42-1114.83.02c-1.86.23-3.79,4.03-4.93,5.24-4.1,4.35-9.93,8.93-16.19,11.96-1.93.93-9.18,3.27-9.73,3.68-.33.25-.61.46-.61.81l-.02,98.44c9.87,3.35,18.25,8.13,24.59,14.17,1.36,1.29,5.62,6.8,6.27,7.19.56.33,1.04.46,1.81.42h1115.34c6.5-9.29,17.2-17.1,30.98-21.78l-.15-98.96Z"/>
  <path d="M797.15,74.18l-18.9,59c-2.56,1.41-6.77,1.4-7.79-.95l-14.85-56.84c-1.36.22-.83.58-.82,1.12.03,1.99.35,3.99.24,5.99-.05.96-.62,1.85-.66,2.8-.52,13.27-.13,26.73.91,39.97.67,1.36,2.51,1.21,3.67,2.02,2.24,1.56,2.54,6.39-1.2,6.86-2.3.29-18.45.29-20.74,0-3.08-.39-3.07-3.32-2.61-4.97.81-2.94,4.41-1.97,5.4-3,2.04-2.11,1-10,1.15-12.92.72-14.38,2.09-31.14,1.27-45.4-.05-.92-.64-4.31-1.08-4.96-.97-1.41-4.39-1.03-5.01-3.56-.41-1.67-.4-4.24,2.73-4.63,7.72.16,15.53-.26,23.24,0,1.58.05,4.48-.02,5.43.83l11.63,38.09,11.87-37.93c.52-.33,1.16-.66,1.84-.8,2.9-.59,20.86-.42,24.79-.2,3.34.19,4.17.83,4.43,3.17.39,3.58-4.09,3.57-5.08,4.94-.35.48-.85,3.45-.93,4.24-1.81,18.27,2.21,37.58.61,55.97.59,4.64,3.63,3.1,5.39,5.34,1.62,2.05.88,5.01-2.85,5.56-4.42.65-18.71.53-23.62.25-3.25-.18-4.22-.76-4.34-3.12-.19-3.71,5.89-4.62,5.89-7.64v-49.25Z"/>
  <path d="M617.56,87.56l15.88.41v-23.71c0-1.56-4.46-3.06-4.87-4.47s-.41-4.46,2.25-4.97l26.12-.08c4.05.77,4.42,5.02,1.82,6.86-.96.68-3.06.86-3.63,1.64-.51.7-.86,3.29-.95,4.24-1.72,18.35,1.34,37.88.04,56.36.67,4.35,3.65,2.79,4.92,4.13,1.63,1.72,1.56,5.74-2.2,6.2l-26.12-.08c-3.09-1.08-3.21-3.91-1.56-5.73.93-1.02,4.18-2.47,4.18-3.71v-28.58h-15.88v28.98c0,1.23,4.53,3.28,4.88,4.47s-.18,4.16-2.24,4.57c-3.8.76-14.39-.18-18.79-.34-4.68-.17-12.03,1.43-12-3.02.03-4,4.4-2.92,6.1-4.91.66-.77,1.15-2.68,1.28-3.61,1.78-13.18-.06-29.84-.04-43.38,0-5.13.86-10.16-.06-15.32-.61-1.33-4.67-1.5-5.92-2.96-1.81-2.12-.82-5.49,3.26-5.85,4.79-.42,17.66-.3,22.66,0,4.74.29,6.74,1.77,5.76,5.07-.42,1.41-4.87,2.9-4.87,4.47v23.31Z"/>
  <path d="M352.28,60.69c-2.13,1.39-6.17,1.13-9.86,4.2-1.81,1.51-14.4,15.76-14.27,16.72,8.64,13.67,14.92,27.93,22.35,41.9,2.67,3.11,8.6,1.53,8.07,6.4-.25,2.32-1.26,2.87-4.56,3.07-6.32.38-22.72.53-28.77,0-3.6-.32-4.04-3.51-3.2-5.41,1-2.27,5.45-.82,4.69-5.72s-8.93-18.85-11.99-24.08c-.3-.51.28-1.07-1.07-.89-1.04,2.09-4.68,5.08-5.16,7.12-.81,3.41-.43,12.09-.06,15.8.09.9.57,4.07.95,4.64,1.17,1.78,6.95,1.44,6.38,5.43-.27,1.87-1.76,2.88-4.54,3.1-3.01.23-28.37.29-29.65-.21-2.25-.88-1.32-5.4.64-6.48,1.36-.76,3.46-.43,4.41-1.94.71-1.12.97-4.69,1.07-6.15,1.07-15.39,1.56-36.28.03-51.53-.58-5.81-2.03-3.34-5.86-5.84-2.69-1.76-1.63-5.76,2.44-6.12,5.73-.5,20.31-.33,26.32,0,2.89.16,4.1.61,4.51,2.68,1.07,5.35-5.19,3.34-6.03,6.89-.58,2.46-.51,7.85-.56,10.57-.08,4.35,1.2,8.83-.08,13.12l19.41-23.81c1.39-3.27-4.08-2.31-5.11-5.36-1.3-3.84,2.88-4.38,7.35-4.5,6.55-.17,13.35.08,19.92.19,4.19.3,4.65,4.63,2.23,6.2Z"/>
  <path d="M118.5,91.62c2.74,1.42,6.38,1.86,9.48,3.23,18.92,8.33,15.42,28.78-4.57,35.5-10.94,3.67-33.8,3.63-46.16,3.04-1.5-.07-2.97-.3-4.41-.52-1.7-1.68-2.38-5.38.49-6.57,2.42-1.01,4.36.02,4.87-2.85l.03-59.21c.35-2.41-2.92-2.33-4.9-3.23-3.65-1.66-3.57-5.96,1.47-6.29,10.18-.67,33.24-.51,42.48,1.85,25.43,6.5,26.54,28.66,1.23,35.06ZM100.17,62.02c-.11,6.93.15,13.92-.08,20.83-.04,1.11-1.51,4.62.04,5.35,19.68,1.15,20.38-27.32.04-26.18ZM100.17,96.88l-.61,27.37.57.83c22.76,1.37,23.89-29.56.04-28.2Z"/>
  <path d="M504.41,53.21c45.17-4.06,46.14,50.01,32.45,68.15-16.18,21.44-48.15,15.67-59.19-5.21-8.45-15.98-7.14-59.89,26.74-62.94ZM507.47,61.29c-2.12.2-4.74,1.85-5.87,3.03-3.64,3.82-4.14,13.11-4.4,17.75-.51,9.12-1.69,32.13,3.77,39.69,4.38,6.07,12.52,4.92,16.33-.82,5.51-8.29,3.55-24.4,3.12-33.57-.29-6.19,1.32-20.76-6.48-24.89-1.64-.87-4.37-1.4-6.47-1.2Z"/>
  <path d="M692.55,53.62c26.26-2.52,36.51,17,38.63,30.91,1.87,12.27-.21,33.41-12.23,43.36-2.51,2.08-9.19,6.26-13.16,6.67-3.16.33-14.95.28-18.02-.15-11.32-1.59-19.89-16.13-21.79-22.83-4.07-14.35-3.31-55.09,26.57-57.95ZM696.19,61.7c-5.64.84-7.06,7.13-7.7,10.31-2.4,12.07-2.9,34.61,0,46.52.94,3.86,4.6,11.59,12.7,8.53,5.47-2.07,7.09-12.67,7.41-16.57.76-9.35,1.58-37.8-3.76-45.37-1.47-2.08-5.09-3.94-8.66-3.41Z"/>
  <path d="M1085.29,75.69c-1.47,1.2-7.14,1.63-9.01.34-1.49-1.03-2.76-5.93-3.77-7.63-2.73-4.6-9.73-10-16.61-4.72-7.14,5.47-6.82,23.3-7.05,30.59-.23,7.29-1.61,23.67,4.86,29.57,4.21,3.84,12.93,3.73,13.99-1.25,1.3-6.11-.85-13.93.06-20.23-.5-1.82-5.69-1.09-7.02-3.05-.62-.92-.6-4.48.44-5.17,2.01-1.34,23.11.12,27.38-.74,3.81.56,4.13,2.67,3.66,4.92-.41,1.96-3.24,2.33-4.34,3.6-1.82,2.11-.03,22.67-.56,27.2-.39,3.31-.99,5.64-6.9,4.96-3.74-.43-3.25-2.77-3.82-2.75-6.56,3.49-15.03,3.87-23.2,3.25-10.16-.76-19.63-9.57-23.2-15.41-10.24-16.74-8.79-53.43,17.2-63.97,8.62-3.49,19.96-3.66,27.91.71,2.52-2.74,9.94-2.68,10.73.66s.53,13.34.06,17.02c-.1.75-.06,1.47-.82,2.1Z"/>
  <path d="M857.08,62.47l-.6,26.65c11.81,2.76,5.36-8.28,15.45-7.21,5.16.54,3.39,4.15,3.37,6.24-.04,4.59.8,10.66.04,15.02-.32,1.82-1.64,2.74-4.52,2.61-8.1-.36-3.78-10.78-13.86-8.72l-1.1,28.35.93.59c6.85,1.13,13.13,0,16.52-4.31,1.74-2.21,2.62-7.33,3.8-8.42,1.55-1.44,9.4-1.99,10.74-.18.64.87.52,14.05.32,16.03-.13,1.28-.45,4.52-2.41,4.87l-53.51.18c-4.23.02-4.73-3.73-3.21-5.78,1.79-2.43,5.37-.89,5.99-5.35v-57.99c.15-2.87-5.37-2.34-6.47-4.63-.85-1.79-.05-3.72,1.23-5.3l53.44-.6,1.84,1.64,1.1,17.34c-1.25,2.6-6.68,3.38-9.87,1.86-2.5-1.19-3.31-6.28-4.54-8.34-2.59-4.32-8.21-5.56-14.7-4.54Z"/>
  <path d="M1135.25,126.07c1.9-.26,6.51-2.74,7.55-3.91,2.04-2.3,2.77-8.48,3.7-9.3,1.59-1.41,10.91-1.72,11.65.86.91,3.16-.36,8.44-.62,11.73-.16,1.94,1.08,7.99-2.23,8.65l-54.9-.3c-1.9-1.16-2.66-3.63-1.63-5.2,1.31-1.99,6.46-1.58,6.27-4.35l.03-59.22c.41-2.56-4.23-2.55-5.79-4.26-1.79-1.97-.79-5.74,2.98-6.07,14.67-.15,29.38.27,44.04.04,7.54-.12,8.17-1.9,8.86,4.63.44,4.18.1,8.76.6,13,.31,3.38-8.31,4.3-10.68,2.2-1.7-1.5-2.31-6.2-3.88-8.37-2.98-4.14-7.73-4.48-14.17-4.18l-.52,26.5.91.61c8.83,1.04,6.47-3.33,8.62-6.33,1.85-2.58,10.35-1.61,9.35,2.11l-1.05,19.59c-.89,1.39-5.42,1.09-7.08.11-3.58-2.12-1.16-9.81-10.84-8.12v29.59c2.63-.24,6.41.33,8.86,0Z"/>
  <path d="M920,103.01v21.2c.7,3.24,3.83,2.08,5.57,4,2.18,2.41,1.16,5.62-3.48,5.98-5.47.42-20.87.44-26.31.01-3.71-.29-4.06-4.28-1.75-6.07,3.23-2.52,4.05-1.61,4.56-5.89-1.43-17.41,2-35.43.61-52.73-.1-1.27-.47-4.95-.91-5.88-.82-1.75-3.98-1.75-5.25-3-1.82-1.81-1.47-4.74,1.68-5.81,24.87-.81,60.48-1.71,63.63,20.03,2.44,16.8-14.02,27.1-38.34,28.17ZM919.93,94.45c11.59.43,15.27-6.71,15.91-13.16.74-7.45-.79-19.26-15.91-18.46v31.62Z"/>
  <path d="M996.75,55.23c1.1.73,5.89,17.5,6.69,20.09,4.99,16.16,9.2,32.42,14.14,48.59.77,3.65,7.44,2.85,7.47,6.83.02,2.05-.88,3.21-4.01,3.46s-28.37.3-29.64-.2c-1.61-.63-1.46-3.99-.94-5.09.82-1.74,3.67-1.68,4.66-2.58,1.99-1.81-.68-8.57-1.2-10.94-.59-.55-17-.47-19.33-.43-.6.01-1.28.03-1.52.49-.64,1.2-2.11,8.83-1.85,10.07.46,2.2,2.09,1.36,4.03,2.19,2.72,1.17,2.6,4.75.6,6.11-1.45.98-19.68.13-23.13.33-2.02-.45-1.89-3.77-1.5-4.91.76-2.22,6.71-2.55,6.68-5.7l18.58-60.64c-2.97-2.5-5.98-4.56-2.54-7.76.53-.34,1.19-.33,1.86-.39,3.85-.35,13.71-.23,17.77,0,.95.05,2.51.07,3.19.52ZM976.13,106.21c4.63.32,9.12.42,13.75.23l1.37-.89-6.58-28.12-8.54,28.78Z"/>
  <path d="M208.48,125.14c.93.56,2.65.58,3.75,1.36,2.48,1.75,2.18,5.24-1.31,6.38h-29.69c-2.84-1.09-3.13-4.98-.69-6.38,1.39-.8,4.26-.67,4.57-2.27l-2.55-10.26-19.09-.08c-1.16.21-2.58,9.04-2.19,10.35.51,1.74,4.31,1.53,5.21,3.43s.62,4.99-3.05,5.31c-4.02.35-15.44.28-19.59-.02s-4.95-3.4-2.88-5.56c1.49-1.56,4.62-1.75,5.93-2.95,1.03-.94,1.51-3.16,1.96-4.38,4.13-11.28,6.65-23.53,10.15-35.02,2.2-7.23,4.78-14.43,7.12-21.64-.06-1.32-3.71-1.04-4.24-2.81-.46-1.56-.4-4.68,2.39-5.29,1.72-.37,17.76-.43,19.87-.17,1.24.15,2.11.76,2.6,1.52l19.88,65.85c.34.75,1,2.12,1.84,2.63ZM180.19,105.8l-7.02-27.16-7.02,27.16h14.05Z"/>
  <path d="M419.65,62.63c-.77-1.63-7.31.16-8.87,1.01-5.01,2.74-3.75,8.28-6.73,10.53-1.7,1.29-8.37,1.43-9.6-.5-.89-1.41-.8-14.09-.46-16.31.15-.98.44-2.52,2.13-2.64l67.54-.22c2.02.33,2.23,2.42,2.4,3.67.5,3.67,1.18,10.29.66,13.8s-8.18,4.17-10.55,1.28c-3.51-4.28-2.63-12.32-14.45-10.77l-.53,1.05c-.61,14.83-.04,29.71.47,44.48.16,4.68-.82,10.57-.04,15.02.58,3.29,4.23,1.99,6.05,3.69,1.94,1.81,1.84,4.75-1.16,6.03l-32.2.32c-3.57-1.18-3.56-5.18-.49-6.6,1.38-.64,5.82-1.04,5.82-2.62v-61.21Z"/>
  <path d="M271.73,77.78c-3.37-.15-9.18,1.12-10.16-1.85-1.04-3.17-.57-6.14-2.88-9.44-4.52-6.47-14.04-6.67-18.13.13-4.68,7.78-4.86,32.63-3.54,41.42.82,5.46,3.48,17.96,15.43,16.33,10.18-1.39,8.16-13.19,11.46-15.09,2.2-1.27,8.88-.4,9.64,1.28.81,1.81-.69,7.01-1.4,9.05-6.41,18.22-35.22,19.45-49.93,4.75-13.08-13.07-12.08-43.96-1.99-57.85,7.8-10.74,23.81-17.49,40.83-10.59,2.84-3.16,9.81-3.24,10.74.67s.39,11.92.42,16.26c0,.76.03,4.73-.48,4.94Z"/>
</svg>