<?xml version="1.0" encoding="UTF-8"?>
<svg id="Layer_1" data-name="Layer 1" xmlns="http://www.w3.org/2000/svg" viewBox="0 0 637.05 145.53">
  <path d="M614.02,3.75c-.47,12.62,7.15,21.66,19.04,24.66v88.76c-13.48,1.98-21.61,10.59-21.04,24.58l-588.42.05c-1.59-12.14-7.03-23.28-20.63-23.53l-.81-1.15-.14-89.37c12.31.13,20.05-12.7,20.01-24h592ZM607.01,10.76l-576.36.13c-2.23.74-1.49,5.04-2.41,7.59-2.98,8.25-11.08,13.85-19.29,15.89l.05,74.9c.59,3.05,7.64,3.81,10.95,6.05,6.58,4.47,9.03,11.02,10.64,18.49h573.81c2.54-7.1,3.8-14.14,10.9-18.27,2.21-1.28,10.23-3.07,10.45-4.24-1.73-5.21.06-10.68.09-15.99.03-3.8-.89-8.09-.9-12.07-.05-15.95-.24-32.09.74-48.06-9.83-5.46-18.93-11.82-18.68-24.43Z"/>
  <path d="M601.92,16.86c1.63,10.81,9.06,16.53,17.94,21.56l.22,65.89c-.17,3.76-5.6,4.55-8.97,7.03-5.51,4.06-10.09,10.31-10.1,17.41l-566.38-.94c-1.82-6.33-5.18-12.57-10.68-16.5-2.7-1.93-8.35-2.92-8.94-6.06l-.04-65.83c10.75-4.52,17.85-11.09,20.65-22.73l566.29.16ZM615.85,103.59v-62.18c-2.98-2.9-6.85-4-9.88-7.12-3.17-3.27-6.65-13.02-9.45-13.55l-557.89-.06c-3.18,10.52-9.67,17.37-19.65,21.74l.2,60.67c8.3,5.25,15.56,10.8,18.45,20.72h559.81c1.8-9.6,9.64-16.77,18.41-20.22Z"/>
  <path d="M332.02,39.75l9.5,32.01,7.5-32.01h23c1.1,7.02-1.43,4.01-4.42,6.07-2.41,1.65-1.72,6.6-1.61,9.48.49,13.26,2.93,26.62,3.05,39.94-.11,2.84,4.22,3.23,4.87,5.16.46,1.37-.16,4.35-1.38,4.35h-21.5c-.39-5.46-.73-5.61,4.05-7.66l-1.06-36.33c-2.45,2.14-3.31,7.09-4.26,10.23-1.55,5.15-7.27,30.91-9.21,32.79-.98.95-1.72,1.02-3.02,1.03l-14-44.06c-2.07,8.43-1.2,16.97-1.46,25.55-.08,2.81-2.61,10.3-.08,12.02,2.7,1.83,5.06-2.45,4.04,6.44h-21c-2.31-10.12,7.03-3.25,8-12.48l2.01-45.02c-.9-4.52-6.87.32-5-7.5h22Z"/>
  <path d="M536.02,39.75c1.65,6.28-2.94,5.09-4.09,6.64-1.38,1.84-1.52,15.84.03,16.93,2.76.39,12.97,1.69,13.92-1.2.61-1.86.37-11.4-.09-13.67-.7-3.47-5.36-3.43-3.77-8.69h21c1.29,6.58-3.39,3.99-4.06,10.44-1.51,14.7.86,32.71.51,47.6,4.76-.09,5.91,6.96,3.04,6.96h-20c-1.29,0-1.92-4.11-1.57-5.41.2-.71,5.07-1.43,5.07-3.09v-24.5h-15l.19,24.3c.98,3.38,7.09,1.15,4.8,8.71-.97-.79-1.87,0-2.49,0h-18l-1.42-1.61c-1.29-4.1,2.46-3.89,3.41-5.4,1.35-2.14,1.19-45.47.57-50.53-.37-3.04-6.03-.84-4.07-7.46h22Z"/>
  <path d="M248.02,39.75l15,28v-19.5c0-3.43-7.47-2.3-5-8.5h19c2.27,4.28-4,7.03-4,7.5v57.5c-1.89-.31-5.32.64-6.8-.21-3.75-2.16-17.54-37.76-23.19-42.79-.68,5.28.72,10.7.72,15.77s-2.42,16.29,1.21,19.8c1.34,1.29,3.89,1.2,4.12,2.02.36,1.29-.28,5.41-1.57,5.41h-17.5c.29-1.62-.43-4.08-.07-5.44.33-1.22,3.43,1.29,4.06-5.05.51-5.13.92-45.61-.45-47.55-1.18-1.67-6.31-.57-4.55-6.95h19Z"/>
  <path d="M193.02,59.75l-4.95-.05c-.81-17.72-15.55-17.3-17.08.51-.55,6.47-.88,29.62,3.01,34.06,5.5,6.29,8.23,1.43,8.65-4.88.17-2.48.29-11.11.09-13.03-.44-4.27-6.33-3.65-4.72-8.62h22c2.07,5.01-4,4.61-4,5v31c-2.56,1.05-4.89-1.97-6.5-1.99-1.21-.02-4.38,2.69-6.67,3.31-34.23,9.24-37.45-63.09-7.33-66.31,6.04-.65,9.38,1.65,13.19,1.81.95.04,4.31-3.14,4.31-.31v19.5Z"/>
  <path d="M408.02,39.75l18,65h-22c-.86-7.23.32-4.65,2.96-6.5,1.93-1.35.21-9.77-1.46-11.5h-14.5c.38,3.05-3.79,9.51-.96,11.5,2.63,1.85,3.82-.74,2.96,6.5h-16c-.92-4.23,2.2-6.48,3.3-10.2,4.52-15.22,6.77-31.32,11.46-46.53-.07-2.99-5.83-2.82-3.76-8.27h20ZM404.02,78.75c.64-.64-2.69-13.08-3.28-15.21-.51-1.82-1.13-5.86-2.7-6.78l-5.01,21.99h11Z"/>
  <path d="M147.02,39.75l.89,15.88c-5.52,2.25-4.29-1.33-6.89-4.39-3.67-4.32-7.42-4.89-13-4.5v18.5c0,1.84,5.3.66,6.26.25,3.08-1.32,2.11-5.39,7.74-3.75v19l-4.89-.11c-.35-5.57-3.87-7.43-9.11-6.89v22.5c0,2.27,8.43.66,9.97-.03,6-2.68,6.33-13.45,13.02-12.48l-2,21h-39c-1.58-7.85,2.16-5.02,4.1-7.39,2.8-3.43-.26-41.82.9-49.11-.77-4.09-7.06-1.74-5-8.5h37Z"/>
  <path d="M508.02,38.75v16.5c0,2.12-6.79,1.03-7.78.29-1.43-1.05-2.14-11.74-9.51-9.66-8.83,2.49-8.77,42.36-1.67,48.33,2.94,2.48,8.59,2.2,10.84-1.08,3.85-5.61-.82-7.67,11.12-6.37-3.04,12.49-8.94,21.26-23.26,18.75-24.97-4.38-25.57-64.97,1.78-66.76,4.69-.31,8.39,1.83,11.17,1.75,1.82-.05,4.47-2.92,7.3-1.76Z"/>
  <path d="M465.02,39.75c-.49,3.5,2.7,18.36.4,20.09-6.88,5.18-5.58-16.18-14.4-13.09v49.5c0,1.68,4.64,2.4,4.85,2.64.7.8-.12,4.41.15,5.86h-23c-2.2-7.89,4.05-4.87,4.97-9.53l-.14-46.81c-5.89-7.09-9.13,11.68-9.96,12.21l-4.93-.34c-1.93-1.14.05-2.62.05-3.04v-17.5h42Z"/>
  <path d="M226.02,39.75c1.68,7.57-2.36,5.29-3.55,6.93-2.22,3.05.77,42.6-.46,49.59.68,3.34,6.08,1.13,4.02,8.49h-23c-1.86-5.58,3.41-5.78,4.51-7.99,1.04-2.08,1.11-42.19.42-46.45-.83-5.1-6.48-4.52-4.94-10.56h23Z"/>
  <path d="M92.52,39.75c12.87,2.59,16.94,27.09,1.51,29.49,10.46,4.02,15.39,12.48,11.48,23.5-1.83,5.17-9.48,12.01-14.99,12.01h-26.5l-1.01-4.98c1.2-.21,3.26-.64,4.03-1.49,2.38-2.65.13-23.03-.03-27.96-.17-5.34,1.13-20.34.07-23.96-.31-1.05-2.57-.55-3.64-1.56-.44-.42.66-3.9-.43-5.05,8.58,1.19,21.51-1.61,29.5,0ZM80.02,47.75v17.5c0,2.65,11.13,3.19,11.08-8-.03-8.02-3.1-10.43-11.08-9.5ZM80.02,96.75c11.58,1.83,15.26-5.57,12.53-16.03-1.81-6.95-12.53-8.72-12.53-5.47v21.5Z"/>
</svg>