<?xml version="1.0" encoding="UTF-8"?>
<svg id="Layer_1" data-name="Layer 1" xmlns="http://www.w3.org/2000/svg" viewBox="0 0 714.29 361.62">
  <path d="M156.6,234.62c-3.3-.54-3.26-6.83-2.56-9.38.29-1.08,5.37-.35,6.11-6.07-2.06-22.75,2.58-49.86-.03-72.07-.78-6.64-10.5-8.89-6.58-14.54,1.35-1.94,29.98-.8,34.62-.49l10.44,41.57,9.5-42.01h35l-.11,7.89c-4.09.33-6.78,2.21-6.91,6.59,1.27,23.21-1.63,48.05-.03,71.06.13,1.84-.05,4.19.97,5.79,2.04,3.2,8.86.35,6.08,11.68h-33.01c.33-2.48-.61-6.12.16-8.34s5.84-2.27,5.84-5.16v-64.5l-17.68,74.82c-.52,3.58-3.15,3.5-6.29,3.14l-18.04-75.96v60.5c0,3.52,7.56,6.21,7.84,6.66.87,1.37-.27,6.74.16,8.84-7.77-.89-18.08,1.21-25.5,0Z"/>
  <path d="M316.6,131.62l27.5,51v-38.5c0-3.8-8.46-5.01-8.86-5.64-.74-1.17.2-5.12-.14-6.86h31l-.11,7.89c-5.56.52-7.3,3.4-7.88,8.61l.05,86.03c-3.17.48-11.37,1.45-13.57-.52l-32.49-65.01v51.5c0,2.26,5.32,5.97,7.89,5.61l.11,8.89h-27.5c-1.71,0-1.92-6.76-1.54-8.33.32-1.29,6.24-1.06,7.06-8.15-1.6-22.92,2.05-48.48.03-71.07-.78-8.68-5.79-6.85-6.89-8.61-.78-1.25.17-5.06-.16-6.85h25.5Z"/>
  <path d="M570.1,131.62l2.8,24.74c.27,1.09-.47,1.8-1.46,2.11-7.12,2.23-7.35-4.52-10.35-8.35-6.29-8.05-11.62-6.4-21-7.5v33c5.72.54,9.16-.28,12.21-5.29,3.11-5.12-.31-6.73,8.79-5.71v33.5c0,1.5-6.02,2.14-6.9,1.39-1.57-1.32-1.99-17.16-14.1-12.89v36c10.16-.83,17.53.65,24.41-8.09,4.61-5.85,3.28-12.94,12.59-10.91-.27,4.19-1.73,28.7-3.64,30.14-7.14.55-59.2,2.44-60.93-.07-.64-.93-.78-6.17-.47-7.4s6.07-.65,7.02-10.18c1.62-16.18,1.55-50.75.05-67.02-.51-5.48-1.59-8.33-7.1-10.08l.06-7.38h58Z"/>
  <path d="M585.1,325.12l-2.05,1.08c-7.89.15-4.43-5.76-8.68-9.63-1.64-1.5-8.2-4.39-9.82-1.97l.54,35.02c9.58.68,16.81-.91,22.98-8.53,4.09-5.05,4.12-12.27,12.03-10.48-.09,3.99-1.33,28.33-2.98,29.58l-59.88-.72-.03-7.75c5.35-.59,6.48-2.51,6.93-7.56,1.48-16.45,1.64-51.77-.04-68.05-.16-1.54-1.33-6.4-2.23-7.27-2.68-2.56-7.1,1.16-4.31-9.32l55.59-.47c1.77,1.37,3.94,26.58,2.94,27.56-7.92,1.56-6.6-3.25-10.01-7.5-6.07-7.58-11.55-8.26-21-7.5v32c5.21.28,9.26-1.07,11.51-5.99s.25-10.29,8.49-6.51v34Z"/>
  <path d="M585.1,198.62l7.96.05c.64,11.4,16.68,34.44,28.5,19.91,13.04-16.02-20.92-29.74-29.44-39.48-18.55-21.22-2.07-58.83,27.96-47.96,1.8.65,5.47,3.55,6.38,3.39,1.49-.26,4.9-6.23,9.64-3.91l1,32.01c-1.9-.38-6.65.64-7.87-.14-.59-.38-3.83-10.19-5.7-12.8-12.03-16.75-31.08.66-15.45,14.45,8.35,7.36,19.58,11.54,26.99,21.01,16.85,21.55,3.06,54.53-26.21,50.22-3.73-.55-8.62-3.68-11.38-3.73-3.08-.05-7.62,4.99-12.38,2.99v-36Z"/>
  <path d="M506.1,131.62l2,34c-2.01-.22-5.41.62-7.05-.46-2.75-1.82-5.22-25.89-15.96-22.54v78.5c0,1.25,5.94,5.07,7.89,4.61l.11,8.89c-5.25-.91-35.9,1.46-37.56-.94-4.79-8.9,8.56-8.5,8.56-13.56v-77.5c-10.85-1.79-13.19,15.12-16.04,22.98l-7.95-1,1.99-32.99h64Z"/>
  <path d="M318.1,259.62l2,34-7.96-.05c-1.81-8.61-4.02-25.56-16.05-22.96l1.03,76.48c.12,1.42.91,2.21,1.98,3.02,4.18,3.15,6.41-.71,4.85,9.36-1.65,2.66-31.44.03-36.86,1.15l.12-8.9c2.57.36,7.89-3.35,7.89-5.61v-75.5c-7.98-1.44-10.34,8.83-12.74,14.76-2.67,6.57-.17,9.59-9.26,8.25l2-34h63Z"/>
  <path d="M117.1,271.12c-.82-4.43-12.19-3.29-5.54-12.24h33.09c6.36,10.69-5.73,6.33-6.6,15.19-2.24,22.63,1.77,48.99.09,72.03.91,4.9,7.29,4.82,7.84,5.66.61.93.73,8.3-1.49,8.65l-33.37.21c.34-2.45-.64-6.2.12-8.37.6-1.72,5.87-2.49,5.87-4.13v-35.5h-20v35.5c0,2.24,6.62,3.31,6.88,3.61.63.71.71,8.02-1.52,8.75-1.56.51-31.47.57-32.92-.22-1.93-1.06-2.02-7.72-1.32-8.52,1.52-1.74,7.06,1,7.88-6.6,1.74-16.16,1.54-52.68.05-69.06-.88-9.67-9.62-7.02-8.05-16.45h37c-.23,2,.64,5.41-.46,7.04-.68,1.01-7.54,2.44-7.54,4.46v28.5h18.5c.41,0,.73,1.9,2.01,0,1.12-.69-.51-1.14-.51-1.5,0-7.24,1.17-20.7,0-27Z"/>
  <path d="M206.6,259.62c.24,0,.6-.81,1.01-.77l.99.71c2.08,8.73,2.23,18.05,2.5,27.06-9.02,2.05-7.33-4.12-12.03-9.48-6.04-6.89-11.5-5.63-19.98-5.52v31c4.47,1.65,9.62-.64,11.5-5,2.56-5.96-1.2-8.11,8.5-7v35h-7c.86-7.63-5.7-12.73-13-12v35c10.45.7,18.1-.12,24.44-9.06,3.64-5.14,3.18-12.83,11.57-10.94l-2.94,31.57-60.63-.5c-3.79-9.44,6.24-6.34,6.58-14.54-1.57-22.6,2.02-47.8.03-70.07-.78-8.68-5.79-6.85-6.89-8.61-.78-1.25.17-5.06-.16-6.85,18.49-.03,37,.04,55.5,0Z"/>
  <path d="M62.1,259.62l3,33.99c-1.8-.32-5.54.63-6.83-.16-2.94-1.8-6.52-26.32-16.17-22.83v75.5c0,.77,2.62,3.84,3.6,4.39,4.9,2.75,7.06-1.25,4.91,9.2-.87,1.67-36.04,1.55-37.58.47-1.38-.97-1.4-7.35-.5-8.62.68-.96,8.56-1.99,8.56-4.44v-76.5c-10.85-4.89-14.61,21.9-16.13,22.87-1.06.67-4.32-.13-5.87.14L.1,259.62h62Z"/>
  <path d="M501.1,348.62c8.5.5,13.33-1.47,18.23-8.27,3.63-5.03,6.65-19.2,13.51-13.27l-3.73,33.11-57.01.43c-.92-8.53,0-6.52,4.51-9.99,4.09-3.13,2.35-12.27,2.5-17.5.44-15.5,2.76-42.19.87-56.9-1.21-9.46-6.92-7.91-7.75-10.24-.67-1.89-.82-6.94,1.91-6.96,10.75-.08,21.58,1.47,32.3-.31,2.53.56,1.38,6.77.66,8.18-.41.8-6.01,2.45-6.01,4.22v77.5Z"/>
  <path d="M253.6,1.62l28.5,53V16.12c0-8.97-12.02-5.94-10-14.5h30l.88,6.88c-5.81,1.66-7.39,1.5-8.47,7.79l.6,88.34c-3.54-.57-11.02,1.23-13.52-.99l-33.49-65.01v49.5c0,1.55,3.05,5.45,4.49,6.5,5.13,3.74,6.56-.1,5.51,10h-30c-1.93-10.04,2.91-7.17,7-12.5l.06-78.06c-.76-6.32-10.01-2.61-7.06-12.44h25.5Z"/>
  <path d="M370.1,1.62v35c-2.14-.3-6.42.71-8.06-.44-.7-.49-3.96-12.62-6.11-15.89-3.38-5.14-8.39-8.83-14.81-6.14-10.6,4.43-9.68,44.9-9.06,55.02.28,4.62,1.32,14.9,3.27,18.73,3.01,5.91,13.39,8.31,14.75,1.21.65-3.41.55-20.34-.04-23.92-1.22-7.39-9.24-4.11-6.94-12.56h33c2.43,5.25-6,7.5-6,10.5v41.5c-8.59,1.3-5.7-1-8.47-4.03-2.62-2.85-5.92,1.59-8.52,2.53-60.43,21.88-58.51-111.54-3.74-102.27,2.91.49,9.11,4.36,10.26,4.4,1.87.07,6.71-5.5,10.48-3.64Z"/>
  <path d="M172.01,1.72c1.32,1.1,2.39,25.26,2.03,28.85l-7.98.62c-2.57-8.72-12.76-25.3-23-16.12-15.57,13.96,18.17,28.49,26.52,36.57,20.79,20.11,8.79,57.77-21.85,54.85-4.48-.43-10.6-3.75-13.21-3.89-2.92-.16-7.05,4.85-11.41,3.02l-1-36.01c11.52-2.65,9.55,7.72,14.57,14.94,1.99,2.87,7.2,7.73,10.63,8.38,7.67,1.44,14.68-5.09,14.46-12.66-.52-17.65-38.97-23.48-40.63-50.18-1.2-19.3,13.74-34.22,33.02-29.02,2.82.76,7.16,3.82,9.43,3.58,1.81-.19,5.78-5.16,8.44-2.94Z"/>
  <path d="M113.1,1.62l-.11,7.89c-4.09.33-6.78,2.21-6.91,6.59,1.75,23.44-2.26,50.03-.04,73.08.44,4.58,2.05,6.56,7.01,6.49l.05,8.95h-37l.12-7.89c4.91-1.16,7.29-1.17,7.88-6.6,2.5-23.14-1.91-50.47.06-74.07-.1-8.59-11.1-3.91-8.06-14.44h37Z"/>
  <path d="M223.1,1.62c-.38,1.95.67,6.54-.16,7.84-.88,1.39-5.93.32-6.86,7.63,1.63,22.88-2.09,48.53-.02,71.07.82,8.91,9.29,6.1,8.05,16.45h-37c.11-1.27.08-7.66.49-8.06,1.71-1.66,5.96-.45,7.26-5.69l.26-76.75c-4.14-5.78-9.01-2.24-7-12.5h35Z"/>
  <path d="M42.6,1.62c20.14,2.88,30.38,27.78,19.93,44.93-1.84,3.01-9.27,8.35-9.38,10.52,4.62,8.5,7.96,30.81,13.92,37.07,3.5,3.67,7.77,1.84,6.03,10.47h-27l-11.54-43.02-5.52,1.6.23,31.26c6.96,1.85,6.19,3.32,5.83,10.17H.1l.1-7.9c2.56-.67,6.47-.43,6.91-3.59l.05-77.07C7.09,8.46-2.65,11.46.1,1.62,13.22,2.97,29.92-.2,42.6,1.62ZM29.1,51.62c21.89,4.38,22.11-42.17,0-38v38Z"/>
  <path d="M473.06.65l2.1,24.45c2.39,5.25-5.89,7.18-7.97,5.4-.45-.39-2.27-7.55-4.69-10.8-12.68-16.98-29.72.25-16.94,12.94,8.46,8.4,20.68,12.47,28.5,22.5,17.84,22.86,1.6,58.26-29.79,49.79-2.52-.68-8.24-4.07-9.87-4.15-2.65-.13-4.97,6.91-10.25,3.78l-1.06-34.95,9.06.45c1.95,7.36,7.42,20.61,15.67,22.32,11.12,2.31,18-6.13,14.82-16.81-2.83-9.52-29.66-19.65-36.72-33.27-10.5-20.26,4.71-48.27,29.17-41.17,2.2.64,5.51,3.28,7.71,3.3,2.02.02,6.17-5.8,10.27-3.77Z"/>
  <path d="M553.1,1.62c-.86,5.1,3.62,33.78,1.07,35.56-1.12.78-4.99.79-6.13,0-2.33-1.63-4.41-28.59-16.94-24.55v79.5c0,2.39,7.04,3.71,7.56,4.43,1.14,1.57.13,5.96.44,8.07h-38c.31-2.11-.71-6.5.44-8.07.53-.73,7.56-2.04,7.56-4.43V12.62c-10.13-1.06-12.35,22.13-15.96,24.54-1.63,1.09-5.04.25-7.04.46l2-36h65Z"/>
  <path d="M683.6,1.62c2.92.42,10.49,4.13,13,6,16.09,11.99,13.84,38.79-3.56,48.56,5.13,8.66,8.56,32.48,15.54,38.46,4.27,3.66,5.61.7,4.53,9.97h-26l-12.54-43.02-5.52,1.6c1.26,6.99-2.31,26.1,2.03,30.95,3.46,3.87,6.69.69,5.03,10.47h-36c.38-1.88-.64-6.69.13-7.87.9-1.37,6.02.79,6.89-6.62,2.67-22.86-2.08-50.67.05-74.08-.07-7.63-9.51-4.78-7.06-14.44,13.43,1.38,30.53-1.86,43.5,0ZM669.1,51.62c11.28-.91,15.43-5.19,16.04-16.45.62-11.36-1.97-23.4-16.04-21.55v38Z"/>
  <path d="M607.6,1.62c1.42.46,2.59,7.14,3.04,8.96,6.79,27.73,10.97,56.77,19.76,83.73,5.94,1.5,4.38,5.38,5.7,10.3h-39l1.12-7.87c11.81-1.83,5.87-11.37,4.93-19.49l-23.01-.59c-.14,4.91-4.77,14.7,0,18.4,4.08,3.16,6.21-.88,4.95,9.55h-31c-2.85-10.92,7.39-8.39,9.28-17.22l17.23-71.68c.22-4.35-5.22-5.64-5.53-6.81-.52-1.94.36-5.1.02-7.29h32.5ZM600.09,63.61l-8.98-34.99-7,34.99c4.95-1.88,10.89-1.24,15.98,0Z"/>
  <path d="M286.1,131.62c2.14,11.24-6.78,4.92-8,15.5-1.84,16-1.51,53.69-.05,70.04.48,5.4,2.37,7.89,7.93,8.56l.11,8.89h-32.5c-1.07,0-3.12-.26-4.04-.91-.63-1-.84-6.34-.52-7.47.25-.9,7.1-1.19,8.03-6.14l.08-74.02c-.81-6.33-7.18-5.46-7.92-6.58-.78-1.19.25-5.98-.13-7.87h37Z"/>
  <path d="M418.1,131.62l19.05,86.45c2.59,7.27,9.43,6.61,6.95,16.55h-34.5c-1.79,0-2.03-8.15-1.38-8.89s6.06-.08,6.89-4.66c.35-1.96-1.54-14.05-2.51-15.51l-21.49-.95c-.32,4.95-4.83,14.52-1.06,18.57,1.4,1.51,4.31,1.29,4.93,3.06.76,2.18-.22,5.91.13,8.37h-28.5c-1.71,0-1.92-6.76-1.54-8.33.3-1.2,4.27-1.48,5.06-3.15,9.68-24.65,12.59-51.94,20.76-77.29.24-5.09-7.6-6.5-4.79-14.23h32ZM394.1,192.62h16l-8.49-35.01-7.51,35.01Z"/>
  <path d="M629.1,324.62h-9.01c.97-15.05-4.92-29.7-5.98-44.52-.28-3.88-.6-13.17.43-16.54,2.72-8.87,18.8-8.12,20.49,2.62,2.83,18.06-7.1,39.91-5.93,58.44Z"/>
  <path d="M621.8,336.83c17.18-3.96,20.38,21.94,5.55,24.55-16.59,2.93-17.35-21.83-5.55-24.55Z"/>
  <path d="M38.6,131.62c36.99,3.91,41.15,58.65,25.92,83.92S24.62,233.31.09,234.62l-.06-8.39c3.65-1.5,7.46-3.48,7.12-8.06-1.94-22.96,2.38-49.58-.06-72.08-.88-8.06-9.73-2.97-7-14.48,12.31.95,26.42-1.28,38.5,0ZM29.1,221.62c5.97.77,11.22-2.31,14.21-7.29,7.3-12.17,7.73-52.05,1-64.41-3.12-5.72-9.02-7.37-15.2-7.3v79Z"/>
  <path d="M394.09,360.62h-35.98s.1-8.9.1-8.9c11.2-.8,6.21-13.69,4.75-20.97-3.61.28-19.94-1.26-21.4.82-1.19,7.59-6.71,18.52,4.42,20.17l.11,8.88h-30.99s.14-8.86.14-8.86c5.75-1.68,6.58-1.34,8.57-6.92,7.56-21.19,9.11-49.25,17.1-71.01.44-5.76-4.39-5.27-4.83-6.91-.52-1.94.35-5.11.01-7.3l32.48-.04,20.65,88.42c5.43,3.82,5.43,6.04,4.86,12.63ZM361.1,318.62l-8.5-35.01-7.5,35.01h16Z"/>
  <path d="M399.1,360.62l-.06-8.38c4.24-1.57,6.47-3.31,7.08-8.1-2.09-21.9,2.71-48.76,0-70.04-.99-7.75-6.5-4.87-7.1-9.95-1-8.38,4.77-4.85,9.61-4.81,17.6.13,45.85-5.75,53.53,15.72,5.14,14.35-.35,26.25-14.07,32.06,10.3,4.61,17.16,8.66,18.04,20.96,1.38,19.37-11.24,32.54-30.53,32.54h-36.5ZM427.1,270.62v31.5c0,1.97,7.45.3,8.84-.16,13.06-4.35,10.08-37.19-8.84-31.34ZM427.1,348.62c25.38,6.07,24.71-39.28,0-34v34Z"/>
  <path d="M108.86,129.88c53.68-7.8,51.28,103.3,9.73,106.72-50.47,4.16-49.65-100.92-9.73-106.72ZM111.8,141.83c-4.23,1.26-5.94,8.58-6.6,12.39-1.88,10.79-2.63,56.25,2.03,64.76,3.15,5.75,11.34,6.99,14.72,1,5.7-10.09,4.82-49.51,3.02-61.74-1.13-7.73-2.36-19.62-13.18-16.4Z"/>
</svg>