<?xml version="1.0" encoding="UTF-8"?>
<svg id="Layer_1" data-name="Layer 1" xmlns="http://www.w3.org/2000/svg" viewBox="0 0 881 104.74">
  <path d="M376.5,104.74l-1.01-2c2.87-2.13,5.38-3.87,6.21-7.62-3.57-26.19,2.38-57.15-.68-82.89-.6-5.07-3.78-5.2-5.02-9.47,1.32-1.37,21.04.94,23.96-1l19.05,53c3.57.6.99-.5.99-1.5V9.24c0-1.64-7.53-6.19-6-7.49,7.26,1.23,14.76,1.56,21.99,0,2.07,3-4.99,7.34-4.99,8.5v94.5l-10.86-.14-28.14-66.86v57.5c0,4.41,6.96,5.76,7,9.5h-22.5Z"/>
  <path d="M95,104.74c-.78-3.93,3.04-3.24,4.77-6.73,1.15-2.32,1.08-4.27,1.27-6.73,1.45-18.56,1.95-56.94-.04-75.05-.73-6.69-4.43-9.05-6-14.49,7.61,1.01,15.43,1.34,22.93.01l22.06,54.98V13.24c0-5.53-4.54-7.23-5.51-9.5-1.32-3.08,8.13-1.11,10.03-1.11,3.19,0,6.29-.77,9.48-.88,1.18,3.19-4.99,6.44-4.99,8.49v94.5c-3.33-.46-8.79,1.39-10.92-1.58l-27.08-64.42v55.5c0,4.82,7.73,6.29,7,10.5h-23Z"/>
  <path d="M495,103.24c-1.66,5.39-9.31-2.43-10.31-2.34-1.52.14-5.62,3.07-8.24,3.78-38.86,10.62-38.44-55.83-31.46-78.46,6.46-20.91,21.37-32.64,42.47-20.45,1.62-5.93,4.54-5.01,4.54.47v27.5c-6.52,1.17-5.97-7.94-8.46-13.04-4.98-10.18-15.08-14.12-19.05-.98-2.8,9.27-2.64,52.52-1.38,63.41.29,2.5,2.1,9.52,3.92,11.08,2.29,1.97,9.97,2.28,9.97.03v-35c0-3.13-8.11-5.09-5.48-8.52,1.11-.44,2.52,1.02,2.98,1.02h25.5c1.56,4.11-5,5.58-5,6v45.5Z"/>
  <path d="M210,33.74c-1.18-.1-2.15.53-3.07-.62-1.71-2.12-3.34-9.52-5.1-12.7-5.34-9.62-16.01-13.96-19.4-.75-2.58,10.05-2.73,57.39-.15,67.3,1.27,4.85,3.31,9.29,9.23,8.87,1.05-.07,3.49-.56,3.49-1.59v-36c0-1.92-8.14-3.55-4-7.07.74-.59,1.26.57,1.5.57h26.5c1.38,3.68-6,5.47-6,8.5v44.5c-3.89,2.07-7.44-3.7-8.49-3.78-.83-.06-3.43,2.31-4.97,2.82-16.13,5.26-28.78-.36-35.02-16.05-9.5-23.9-7.94-97.78,33.27-85.27,5.4,1.64,5.98,6.07,9.73-.72.8-.39,2.49,1.17,2.49,1.5v30.5Z"/>
  <path d="M759,104.74c-3.92,2.05-7.32-3.63-8.48-3.73-1.01-.08-4.75,2.71-6.53,3.22-20.17,5.82-31.76-6.8-35.54-25.44-4.91-24.18-2.27-90.12,37.57-75.57,1.6.59,2.93,2.51,4.47,2.54.69.01,1.81-5,4.52-4.02v32h-2.98c-.6-15.53-18.99-36.59-23.76-10.25-2.66,14.72-2.21,47.56-.17,62.66,1.05,7.75,5.4,10.2,12.91,9.59v-36.5c0-3.88-7.72-3.32-6-7.5h29c2.25,3.97-5,5.9-5,7.5v45.5Z"/>
  <path d="M797,1.74c1.42,4.76-2.38,5.8-3.77,8.72-2.07,4.34-2.07,68.05-1.27,76.82,1.23,13.42,17.45,11.2,19.05-3.05.91-8.08.73-70.68-1.23-74.78-1.18-2.48-4.52-3.39-3.77-6.71l18.49-.73,1.54,2.22c-1.83,3.82-4.5,4.25-5.06,8.98-2.53,21.37,4.22,56.86-1.04,75.96-6.99,25.41-44.46,21.45-46.97-8.9-1.78-21.46,2.53-47.15.06-68.06-.62-5.22-4.5-6-5.04-8.97-.29-1.61.03-1.66,1.51-1.53,8.97.77,18.5.72,27.5.03Z"/>
  <path d="M587,104.74c.16-3.33,3.96-5.54,4.77-7.73,2.41-6.55,2.34-70.92,1.24-80.77-.67-6-4.77-9.01-5-14.49l47.06.43,1.93,26.56c-5.63.3-6.26-7.25-9.56-10.93-3.83-4.27-10.8-6.38-16.44-6.06v36c4.71-.22,8.31-1.57,10.85-5.65,1.73-2.77,1.34-8.24,6.15-7.35v30.5c0,.73,2.06,5.28-1.49,4.5-1.76-.39-3.25-8.28-5.57-10.44-2.47-2.3-6.69-2.86-9.94-2.56v39c15.35,3.12,20.56-9.75,24.03-21.99l2.97-.02-1,31.01h-50Z"/>
  <path d="M833,104.74c-1.15-3.68,2.31-4.98,3.25-7.25,2.72-6.6.78-64.3.7-76.29-.03-4.7,1.8-7.07-.74-12.17-1.61-3.24-8.01-6.14-.7-7.37l42.55.58c1.55,1.45,1.51,22.47,1.94,26.5-2.59,2.61-7.1-8.04-8.58-9.91-4.42-5.59-9.07-8.04-16.41-7.09v36c5.49.66,9.01-1.07,11.56-5.94,1.66-3.16.74-7.91,5.44-7.06v35c-4.47,1.13-3.5-4.12-5.11-7.39-2.75-5.59-5.86-6.05-11.89-5.61v39c8.74,1.11,15.08-2.63,19.65-9.85,1.25-1.97,5.36-15.16,8.35-12.14l-1.99,31h-48Z"/>
  <path d="M557,94.24c1.69,5.69,13.58-3.88,15.83-7.17,1.33-1.93,7.04-17.49,10.16-14.33l-.99,32h-49c-.64-4.02,3.97-5.05,5.07-8.43-.45-25.41,3.78-57.13.92-82.07-.6-5.23-6.2-9.98-5.99-10.99.63-3.02,9.09-.49,11.46-.45s16.82-1.12,17.54-.59c3.12,2.29-5,6.39-5,10.02v82Z"/>
  <path d="M60,104.74l5.24-7.26c-.81-26.21,3.67-58.51.75-84.24-.84-7.38-5.71-8.05-6.02-9-1.55-4.71,7.93-1.5,10.47-1.46,5.62.09,12.24-.14,17.54-1.04l-4.01,9.48c1.94,26-2.5,55.5-.03,81.07.6,6.17,4.06,7.24,5.05,12.45h-29Z"/>
  <path d="M337.74.98c41.2-6.91,40.6,81.83,18.74,99.73-9.73,7.97-24.05,6.87-32.45-2.49-16.84-18.78-17.32-92.04,13.72-97.24ZM339.7,10.92c-1.99.61-3.47,3.93-4.18,5.85-4.07,10.95-3.62,50.22-2.56,63.51.32,4.06,2.05,14.2,6.05,15.95,11.02,4.8,12.56-12.09,13.02-18.94.85-12.44.75-30.58,0-43.08-.43-7.26-1.06-26.74-12.34-23.28Z"/>
  <path d="M-2,104.74c2.54-5.12,6.39-4.97,7.06-11.44,2.62-24.99-2.11-54.59-.04-80.09C6.52,9.04-3.13,5.23-1,2.75c1.2-1.39,22.63.46,25.67-.64,18.63-.46,30.63,6.61,32.31,26.14,2.03,23.6-8.51,36.86-32.99,34.48,1.21,7.78-2.82,31.66,3.03,36.48,2.85,2.35,6.14-.22,4.97,5.53H-2ZM24,11.74v42c19.85,3.58,20.86-44.95,0-42Z"/>
  <path d="M248,104.74c-1.35-1.13,4.78-5.84,5.42-7.08,6.31-12.04-1.53-66.87,1.6-83.45.31-6.13-6.91-7.06-6.01-12.48,1.2.42,2.07,1.03,3.46,1.02,20.98-.11,50.49-6.19,53.52,23.49,2.45,24.05-6.18,38.56-31.99,36.48,1.25,9.44-1.76,23.45.22,32.29,1.29,5.78,7.27,4.17,7.79,9.71h-34ZM274,54.74c10.61-1.26,13.3-7.62,14.04-17.46.83-11.01.56-26.18-14.04-25.54v43Z"/>
  <path d="M643,104.74c-2.5-2.67,5.08-6.49,4.9-9.6L666.52,1.72l15.6,1.6c6.46,26.5,9.87,53.8,16.57,80.24.84,3.32,1.74,9.19,3.1,11.9,1.87,3.74,6.8,3.41,5.22,9.28h-31c-1.04-4.15,3.63-4.48,5.07-6.42,2.29-3.11-.81-12.76-1.02-16.93l-1.5-.71c-3.3.7-15.56-1.15-17.09,1.02-.39.56-2.63,12.45-2.49,13.49.48,3.6,7.02,3.69,5.03,9.55h-21ZM678,70.74l-7.5-37.01-6.5,37.01h14Z"/>
</svg>